<mxfile host="65bd71144e">
    <diagram id="pBK1guH4bu_zmOCUXD5L" name="Top Down">
        <mxGraphModel dx="594" dy="561" grid="1" gridSize="10" guides="1" tooltips="1" connect="1" arrows="1" fold="1" page="1" pageScale="1" pageWidth="827" pageHeight="1169" math="0" shadow="0">
            <root>
                <mxCell id="0"/>
                <mxCell id="1" parent="0"/>
                <mxCell id="kIHPj6zRgX1InL4mbEAz-5" style="edgeStyle=none;html=1;entryX=0.5;entryY=0;entryDx=0;entryDy=0;" parent="1" source="kIHPj6zRgX1InL4mbEAz-1" target="kIHPj6zRgX1InL4mbEAz-2" edge="1">
                    <mxGeometry relative="1" as="geometry"/>
                </mxCell>
                <mxCell id="kIHPj6zRgX1InL4mbEAz-6" style="edgeStyle=orthogonalEdgeStyle;html=1;rounded=0;" parent="1" source="kIHPj6zRgX1InL4mbEAz-1" target="kIHPj6zRgX1InL4mbEAz-3" edge="1">
                    <mxGeometry relative="1" as="geometry">
                        <Array as="points">
                            <mxPoint x="330" y="160"/>
                            <mxPoint x="80" y="160"/>
                        </Array>
                    </mxGeometry>
                </mxCell>
                <mxCell id="kIHPj6zRgX1InL4mbEAz-7" style="edgeStyle=orthogonalEdgeStyle;rounded=0;html=1;" parent="1" source="kIHPj6zRgX1InL4mbEAz-1" target="kIHPj6zRgX1InL4mbEAz-4" edge="1">
                    <mxGeometry relative="1" as="geometry">
                        <Array as="points">
                            <mxPoint x="330" y="160"/>
                            <mxPoint x="610" y="160"/>
                        </Array>
                    </mxGeometry>
                </mxCell>
                <mxCell id="kIHPj6zRgX1InL4mbEAz-1" value="Leap year" style="rounded=0;whiteSpace=wrap;html=1;" parent="1" vertex="1">
                    <mxGeometry x="270" y="80" width="120" height="60" as="geometry"/>
                </mxCell>
                <mxCell id="kIHPj6zRgX1InL4mbEAz-14" style="edgeStyle=orthogonalEdgeStyle;rounded=0;html=1;" parent="1" source="kIHPj6zRgX1InL4mbEAz-2" target="kIHPj6zRgX1InL4mbEAz-12" edge="1">
                    <mxGeometry relative="1" as="geometry"/>
                </mxCell>
                <mxCell id="kIHPj6zRgX1InL4mbEAz-15" style="edgeStyle=orthogonalEdgeStyle;rounded=0;html=1;" parent="1" source="kIHPj6zRgX1InL4mbEAz-2" target="kIHPj6zRgX1InL4mbEAz-13" edge="1">
                    <mxGeometry relative="1" as="geometry"/>
                </mxCell>
                <mxCell id="6" style="edgeStyle=none;html=1;" edge="1" parent="1" source="kIHPj6zRgX1InL4mbEAz-2">
                    <mxGeometry relative="1" as="geometry">
                        <mxPoint x="330" y="400" as="targetPoint"/>
                    </mxGeometry>
                </mxCell>
                <mxCell id="kIHPj6zRgX1InL4mbEAz-2" value="Process" style="rounded=0;whiteSpace=wrap;html=1;" parent="1" vertex="1">
                    <mxGeometry x="270" y="200" width="120" height="60" as="geometry"/>
                </mxCell>
                <mxCell id="kIHPj6zRgX1InL4mbEAz-10" style="edgeStyle=orthogonalEdgeStyle;rounded=0;html=1;" parent="1" source="kIHPj6zRgX1InL4mbEAz-3" target="kIHPj6zRgX1InL4mbEAz-8" edge="1">
                    <mxGeometry relative="1" as="geometry">
                        <Array as="points">
                            <mxPoint x="80" y="280"/>
                            <mxPoint x="80" y="280"/>
                        </Array>
                    </mxGeometry>
                </mxCell>
                <mxCell id="kIHPj6zRgX1InL4mbEAz-3" value="Input" style="rounded=0;whiteSpace=wrap;html=1;" parent="1" vertex="1">
                    <mxGeometry x="20" y="190" width="120" height="60" as="geometry"/>
                </mxCell>
                <mxCell id="kIHPj6zRgX1InL4mbEAz-18" style="edgeStyle=orthogonalEdgeStyle;rounded=0;html=1;" parent="1" source="kIHPj6zRgX1InL4mbEAz-4" target="kIHPj6zRgX1InL4mbEAz-17" edge="1">
                    <mxGeometry relative="1" as="geometry">
                        <mxPoint x="570" y="330" as="targetPoint"/>
                    </mxGeometry>
                </mxCell>
                <mxCell id="kIHPj6zRgX1InL4mbEAz-4" value="Output" style="rounded=0;whiteSpace=wrap;html=1;" parent="1" vertex="1">
                    <mxGeometry x="550" y="200" width="120" height="60" as="geometry"/>
                </mxCell>
                <mxCell id="kIHPj6zRgX1InL4mbEAz-8" value="Get year" style="rounded=0;whiteSpace=wrap;html=1;" parent="1" vertex="1">
                    <mxGeometry x="20" y="330" width="120" height="60" as="geometry"/>
                </mxCell>
                <mxCell id="kIHPj6zRgX1InL4mbEAz-12" value="Check if year can be divisible by 4" style="rounded=0;whiteSpace=wrap;html=1;" parent="1" vertex="1">
                    <mxGeometry x="150" y="320" width="120" height="60" as="geometry"/>
                </mxCell>
                <mxCell id="kIHPj6zRgX1InL4mbEAz-13" value="Check if year is divisible by 100" style="rounded=0;whiteSpace=wrap;html=1;" parent="1" vertex="1">
                    <mxGeometry x="390" y="320" width="120" height="60" as="geometry"/>
                </mxCell>
                <mxCell id="kIHPj6zRgX1InL4mbEAz-17" value="Show if it is a leap year (or not)" style="rounded=0;whiteSpace=wrap;html=1;" parent="1" vertex="1">
                    <mxGeometry x="550" y="330" width="120" height="60" as="geometry"/>
                </mxCell>
                <mxCell id="4" value="Check if year is divisible by 400" style="rounded=0;whiteSpace=wrap;html=1;" vertex="1" parent="1">
                    <mxGeometry x="270" y="400" width="120" height="60" as="geometry"/>
                </mxCell>
            </root>
        </mxGraphModel>
    </diagram>
</mxfile>